<svg xmlns="http://www.w3.org/2000/svg" xmlns:xlink="http://www.w3.org/1999/xlink" width="40" height="40" viewBox="0 0 40 40"><defs><style>.a,.c{fill:#C8AB69;}.a{stroke:#707070;}.b{clip-path:url(#a);}</style><clipPath id="a"><rect class="a" width="40" height="40" transform="translate(285 499)"/></clipPath></defs><g class="b" transform="translate(-285 -499)"><g transform="translate(285 499)"><path class="c" d="M34.969,6.692A20,20,0,1,0,6.692,34.969,20,20,0,1,0,34.969,6.692Zm4.049,13.241H31.263A34.726,34.726,0,0,0,30,11.239,19.834,19.834,0,0,0,34.12,8.4,18.163,18.163,0,0,1,39.018,19.933Zm-17.29,1.8h7.747a32.828,32.828,0,0,1-1.135,7.992,20.19,20.19,0,0,0-6.612-1.437Zm11.1-14.58a18.187,18.187,0,0,1-3.4,2.359,20.852,20.852,0,0,0-1.053-2.449A14.389,14.389,0,0,0,25.753,3.3,18.131,18.131,0,0,1,32.831,7.149ZM21.729,2.9c1.869.416,3.633,2.139,5.053,4.947a20.4,20.4,0,0,1,1.029,2.424,18.32,18.32,0,0,1-6.082,1.363ZM28.349,12a32.832,32.832,0,0,1,1.118,7.943H21.729v-6.5A20.2,20.2,0,0,0,28.349,12Zm-8.416,7.935H12.186A32.832,32.832,0,0,1,13.3,11.99a19.828,19.828,0,0,0,6.62,1.437v6.506ZM19.941,2.9v8.735a18.274,18.274,0,0,1-6.082-1.363,20.4,20.4,0,0,1,1.029-2.424c1.42-2.808,3.184-4.531,5.053-4.947Zm-4.024.4a14.528,14.528,0,0,0-2.629,3.755,24.013,24.013,0,0,0-1.053,2.449,18.459,18.459,0,0,1-3.4-2.359A18.131,18.131,0,0,1,15.916,3.3ZM7.549,8.4a20.152,20.152,0,0,0,4.122,2.841,34.411,34.411,0,0,0-1.265,8.694H2.651A18.163,18.163,0,0,1,7.549,8.4Zm-4.9,13.331h7.755a34.682,34.682,0,0,0,1.282,8.743A19.654,19.654,0,0,0,7.582,33.3,18.135,18.135,0,0,1,2.651,21.729Zm6.22,12.816a18.255,18.255,0,0,1,3.38-2.343,22.122,22.122,0,0,0,1.037,2.4,14.581,14.581,0,0,0,2.629,3.763,18.221,18.221,0,0,1-7.045-3.82Zm11.069,4.212c-1.869-.416-3.633-2.139-5.053-4.947a20.983,20.983,0,0,1-1.012-2.376,18.019,18.019,0,0,1,6.065-1.355v8.678ZM13.329,29.72a32.828,32.828,0,0,1-1.135-7.992h7.747v6.555a19.782,19.782,0,0,0-6.612,1.437Zm8.408,9.037V30.08A18.217,18.217,0,0,1,27.8,31.435,20.983,20.983,0,0,1,26.79,33.81c-1.42,2.808-3.184,4.531-5.053,4.947Zm4.024-.4a14.441,14.441,0,0,0,2.629-3.763,22.121,22.121,0,0,0,1.037-2.4,18.255,18.255,0,0,1,3.38,2.343,18.009,18.009,0,0,1-7.045,3.82ZM34.1,33.3A19.97,19.97,0,0,0,30,30.471a34.737,34.737,0,0,0,1.282-8.743h7.755A18.22,18.22,0,0,1,34.1,33.3Z" transform="translate(-0.831 -0.831)"/></g></g></svg>