<svg xmlns="http://www.w3.org/2000/svg" width="14" height="12" viewBox="0 0 14 12">
  <g id="icon-left-arrow2" transform="translate(-362 -2117)">
    <g id="向量圖智慧型物件_拷貝_5" data-name="向量圖智慧型物件 拷貝 5" transform="matrix(-1, 0, 0, -1, 371.227, 2116.328)">
      <g id="Group_71" data-name="Group 71">
        <path id="Path_181" data-name="Path 181" d="M3.9-12.548a.374.374,0,0,0-.28-.124.374.374,0,0,0-.28.124.446.446,0,0,0,0,.6L8.271-6.672,3.343-1.4a.446.446,0,0,0,0,.6.378.378,0,0,0,.56,0L9.111-6.372a.446.446,0,0,0,0-.6Z" fill="#b6974c"/>
      </g>
    </g>
    <g id="向量圖智慧型物件_拷貝_6" data-name="向量圖智慧型物件 拷貝 6" transform="matrix(-1, 0, 0, -1, 379.227, 2116.328)">
      <g id="Group_72" data-name="Group 72">
        <path id="Path_182" data-name="Path 182" d="M3.9-12.548a.374.374,0,0,0-.28-.124.374.374,0,0,0-.28.124.446.446,0,0,0,0,.6L8.271-6.672,3.343-1.4a.446.446,0,0,0,0,.6.378.378,0,0,0,.56,0L9.111-6.372a.446.446,0,0,0,0-.6Z" fill="#b6974c"/>
      </g>
    </g>
  </g>
</svg>
