<svg xmlns="http://www.w3.org/2000/svg" width="25.31" height="25.534" viewBox="0 0 25.31 25.534">
  <g id="icon-pirnt" opacity="0.66">
    <g id="printer" transform="translate(0)">
      <path id="Path_594" data-name="Path 594" d="M33.71,17.916V8.593a2.281,2.281,0,0,0-2.3-2.25h-2.5V1.594A1.517,1.517,0,0,0,27.375.1H14.725a1.513,1.513,0,0,0-1.531,1.49V6.343H10.7A2.274,2.274,0,0,0,8.4,8.588v9.328a2.281,2.281,0,0,0,2.3,2.25H13.2v3.974a1.517,1.517,0,0,0,1.531,1.495H27.38a1.517,1.517,0,0,0,1.531-1.495V20.165h2.494A2.271,2.271,0,0,0,33.71,17.916ZM14.51,1.589a.225.225,0,0,1,.225-.22H27.38a.225.225,0,0,1,.225.22V6.343H14.51ZM27.6,24.139a.225.225,0,0,1-.225.22H14.73a.225.225,0,0,1-.225-.22V13.891h13.09V24.139Zm.656-11.522h-14.4a.646.646,0,0,0-.656.64V18.89H10.7a.991.991,0,0,1-1-.975V8.593a.991.991,0,0,1,1-.975H31.4a.991.991,0,0,1,1,.975v9.328a.991.991,0,0,1-1,.975H28.906V13.257A.638.638,0,0,0,28.255,12.617Z" transform="translate(-8.4 -0.099)" fill="#444"/>
      <path id="Path_595" data-name="Path 595" d="M70.995,187.851a.631.631,0,0,0-.195.455.649.649,0,0,0,.195.455.663.663,0,0,0,.466.19.681.681,0,0,0,.466-.19.64.64,0,0,0,.195-.455.649.649,0,0,0-.195-.455A.7.7,0,0,0,70.995,187.851Z" transform="translate(-67.604 -178.298)" fill="#444"/>
      <path id="Path_596" data-name="Path 596" d="M178.281,368h-7.426a.64.64,0,1,0,0,1.28h7.416a.646.646,0,0,0,.656-.64A.637.637,0,0,0,178.281,368Z" transform="translate(-161.914 -349.609)" fill="#444"/>
      <path id="Path_597" data-name="Path 597" d="M178.281,425.9h-7.426a.64.64,0,1,0,0,1.28h7.416a.64.64,0,1,0,.01-1.28Z" transform="translate(-161.914 -404.615)" fill="#444"/>
      <path id="Path_598" data-name="Path 598" d="M178.281,310h-7.426a.64.64,0,1,0,0,1.28h7.416a.64.64,0,1,0,.01-1.28Z" transform="translate(-161.914 -294.508)" fill="#444"/>
    </g>
  </g>
</svg>
