<svg xmlns="http://www.w3.org/2000/svg" width="20.573" height="20.573" viewBox="0 0 20.573 20.573">
  <g id="icon-share" opacity="0.57">
    <path id="share_4_" data-name="share (4)" d="M16.555,12.537a4.013,4.013,0,0,0-3.149,1.525L7.9,11.319a4.022,4.022,0,0,0,0-2.065l5.5-2.743a4,4,0,1,0-.727-1.433L7.185,7.815a4.018,4.018,0,1,0,0,4.942L12.679,15.5a4.018,4.018,0,1,0,3.876-2.959Zm0-10.929a2.411,2.411,0,1,1-2.411,2.411A2.414,2.414,0,0,1,16.555,1.607ZM4.018,12.7a2.411,2.411,0,1,1,2.411-2.411A2.414,2.414,0,0,1,4.018,12.7Zm12.537,6.268a2.411,2.411,0,1,1,2.411-2.411A2.414,2.414,0,0,1,16.555,18.966Zm0,0" transform="translate(0 0)" fill="#444"/>
  </g>
</svg>
