<svg xmlns="http://www.w3.org/2000/svg" width="14" height="12" viewBox="0 0 14 12">
  <g id="icon-right-arrow2" transform="translate(-1056 -2117)">
    <g id="向量圖智慧型物件" transform="translate(1060.773 2116.328)">
      <g id="Group_67" data-name="Group 67">
        <path id="Path_177" data-name="Path 177" d="M3.9,12.548a.378.378,0,0,1-.56,0,.446.446,0,0,1,0-.6L8.271,6.672,3.343,1.4a.446.446,0,0,1,0-.6A.378.378,0,0,1,3.9.8L9.111,6.372a.446.446,0,0,1,0,.6Z" fill="#b6974c"/>
      </g>
    </g>
    <g id="向量圖智慧型物件_拷貝_2" data-name="向量圖智慧型物件 拷貝 2" transform="translate(1052.773 2116.328)">
      <g id="Group_68" data-name="Group 68">
        <path id="Path_178" data-name="Path 178" d="M3.9,12.548a.378.378,0,0,1-.56,0,.446.446,0,0,1,0-.6L8.271,6.672,3.343,1.4a.446.446,0,0,1,0-.6A.378.378,0,0,1,3.9.8L9.111,6.372a.446.446,0,0,1,0,.6Z" fill="#b6974c"/>
      </g>
    </g>
  </g>
</svg>
