<svg xmlns="http://www.w3.org/2000/svg" width="30" height="34.825" viewBox="0 0 30 34.825">
  <g id="icon-download" transform="translate(1.88 0.001)">
    <path id="Path_12168" data-name="Path 12168" d="M20.692.231,20.685.224A.69.69,0,0,0,20.17,0H10.013a3.66,3.66,0,0,0-3.571,3.74V5.3H1.692A3.659,3.659,0,0,0-1.88,9.043V31.085a3.659,3.659,0,0,0,3.571,3.74H16.227a3.66,3.66,0,0,0,3.571-3.74V29.522h4.75a3.659,3.659,0,0,0,3.571-3.74V8.309a.791.791,0,0,0-.207-.531Zm.193,2.319,4.807,5.026H23.027a2.2,2.2,0,0,1-2.143-2.244ZM16.227,33.329H1.692A2.2,2.2,0,0,1-.451,31.085V9.043A2.2,2.2,0,0,1,1.692,6.8H6.906a.72.72,0,0,0,.5,0h3.736v3.837a3.659,3.659,0,0,0,3.571,3.74h3.664v16.71a2.208,2.208,0,0,1-2.15,2.244Zm1.15-20.45H14.713a2.2,2.2,0,0,1-2.143-2.244V7.853Zm7.172,15.146H19.8V13.612a.79.79,0,0,0-.207-.531L12.377,5.534l-.007-.007a.69.69,0,0,0-.514-.224H7.87V3.739A2.2,2.2,0,0,1,10.013,1.5h9.45V5.332a3.659,3.659,0,0,0,3.571,3.74h3.657v16.71a2.2,2.2,0,0,1-2.143,2.244Zm0,0" transform="translate(0 0)" fill="#ab8f4e"/>
    <path id="Path_12169" data-name="Path 12169" d="M62.033,292.25H69.61a.748.748,0,1,0,0-1.5H62.033a.748.748,0,1,0,0,1.5Zm0,0" transform="translate(-59.38 -273.334)" fill="#ab8f4e"/>
    <path id="Path_12170" data-name="Path 12170" d="M75.669,379.262H62.034a.748.748,0,0,0,0,1.5H75.669a.748.748,0,0,0,0-1.5Zm0,0" transform="translate(-59.381 -356.539)" fill="#ab8f4e"/>
    <path id="Path_12171" data-name="Path 12171" d="M75.669,467.77H62.034a.748.748,0,1,0,0,1.5H75.669a.748.748,0,1,0,0-1.5Zm0,0" transform="translate(-59.381 -439.744)" fill="#ab8f4e"/>
    <path id="Path_12172" data-name="Path 12172" d="M399.26,290.754h-2.281a.748.748,0,0,0,0,1.5h2.281a.748.748,0,1,0,0-1.5Zm0,0" transform="translate(-375.672 -273.334)" fill="#ab8f4e"/>
    <path id="Path_12173" data-name="Path 12173" d="M399.26,379.262h-2.281a.748.748,0,0,0,0,1.5h2.281a.748.748,0,1,0,0-1.5Zm0,0" transform="translate(-375.672 -356.539)" fill="#ab8f4e"/>
  </g>
</svg>
