<svg xmlns="http://www.w3.org/2000/svg" xmlns:xlink="http://www.w3.org/1999/xlink" width="25" height="25" viewBox="0 0 25 25">
  <defs>
    <clipPath id="clip-path">
      <rect id="Rectangle_2831" data-name="Rectangle 2831" width="25" height="25" transform="translate(669 114)" fill="#fff" stroke="#C8AB69" stroke-width="1"/>
    </clipPath>
  </defs>
  <g id="icon-sitemap" transform="translate(-669 -114)" clip-path="url(#clip-path)">
    <g id="sitemap_2_" data-name="sitemap (2)" transform="translate(669 114)">
      <g id="Group_4443" data-name="Group 4443">
        <path id="Path_12193" data-name="Path 12193" d="M23.333,17.448H22.4V14a3.011,3.011,0,0,0-3.051-2.8H13.021V8.073h1.458a1.67,1.67,0,0,0,1.667-1.667V2.969A1.67,1.67,0,0,0,14.479,1.3H10.521A1.67,1.67,0,0,0,8.854,2.969V6.406a1.67,1.67,0,0,0,1.667,1.667h1.458V11.2H5.655A3.011,3.011,0,0,0,2.6,14v3.449H1.667A1.67,1.67,0,0,0,0,19.115v2.917A1.67,1.67,0,0,0,1.667,23.7H4.583A1.67,1.67,0,0,0,6.25,22.031V19.115a1.67,1.67,0,0,0-1.667-1.667H3.646V14A1.978,1.978,0,0,1,5.655,12.24h6.325v5.208h-.938a1.67,1.67,0,0,0-1.667,1.667v2.917A1.67,1.67,0,0,0,11.042,23.7h2.917a1.67,1.67,0,0,0,1.667-1.667V19.115a1.67,1.67,0,0,0-1.667-1.667h-.938V12.24h6.325A1.978,1.978,0,0,1,21.354,14v3.449h-.938a1.67,1.67,0,0,0-1.667,1.667v2.917A1.67,1.67,0,0,0,20.417,23.7h2.917A1.67,1.67,0,0,0,25,22.031V19.115A1.67,1.67,0,0,0,23.333,17.448ZM4.583,18.49a.625.625,0,0,1,.625.625v2.917a.625.625,0,0,1-.625.625H1.667a.625.625,0,0,1-.625-.625V19.115a.625.625,0,0,1,.625-.625Zm9.375,0a.625.625,0,0,1,.625.625v2.917a.625.625,0,0,1-.625.625H11.042a.625.625,0,0,1-.625-.625V19.115a.625.625,0,0,1,.625-.625ZM10.521,7.031A.625.625,0,0,1,9.9,6.406V2.969a.625.625,0,0,1,.625-.625h3.958a.625.625,0,0,1,.625.625V6.406a.625.625,0,0,1-.625.625Zm13.438,15a.625.625,0,0,1-.625.625H20.417a.625.625,0,0,1-.625-.625V19.115a.625.625,0,0,1,.625-.625h2.917a.625.625,0,0,1,.625.625Z" fill="#C8AB69"/>
      </g>
    </g>
  </g>
</svg>
