<svg id="icon-ig" xmlns="http://www.w3.org/2000/svg" width="18.658" height="18.389" viewBox="0 0 18.658 18.389">
  <path id="Path_6132" data-name="Path 6132" d="M65.4,72.125c.058-.442.1-.872.186-1.314A4.8,4.8,0,0,1,70.259,66.6c2.988-.1,6-.1,8.986,0a4.8,4.8,0,0,1,4.743,4.8c.093,2.871.093,5.754,0,8.626a4.8,4.8,0,0,1-4.743,4.8c-2.988.1-6,.116-8.986,0A4.88,4.88,0,0,1,65.5,80.019c-.012-.232-.07-.465-.1-.7Zm9.335,11.113c1.372,0,2.743.046,4.1-.012a3.341,3.341,0,0,0,3.511-3.5c.058-2.674.058-5.336,0-8.01a3.322,3.322,0,0,0-3.511-3.5q-4.08-.087-8.161,0a3.3,3.3,0,0,0-3.511,3.441q-.1,4.045,0,8.114a3.329,3.329,0,0,0,3.511,3.453C72.026,83.274,73.386,83.239,74.735,83.239Z" transform="translate(-65.4 -66.525)" fill="#fff"/>
  <path id="Path_6133" data-name="Path 6133" d="M109.555,104.8a4.755,4.755,0,1,0,4.755,4.755A4.753,4.753,0,0,0,109.555,104.8Zm0,7.87a3.115,3.115,0,1,1,3.115-3.115A3.116,3.116,0,0,1,109.555,112.67Z" transform="translate(-100.22 -100.351)" fill="#fff"/>
  <path id="Path_6134" data-name="Path 6134" d="M181.555,94.328a1.128,1.128,0,1,1-1.128-1.128A1.129,1.129,0,0,1,181.555,94.328Z" transform="translate(-166.059 -90.099)" fill="#fff"/>
</svg>
